<?xml version="1.0" encoding="UTF-8"?>
<svg version="1.1" xmlns="http://www.w3.org/2000/svg" width="500" height="500">
<path d="M0 0 C44.17875 -0.0825 88.3575 -0.165 133.875 -0.25 C154.74210205 -0.30462402 154.74210205 -0.30462402 176.03076172 -0.36035156 C193.11547852 -0.37841797 193.11547852 -0.37841797 201.13235474 -0.3817749 C206.690449 -0.3854775 212.24837906 -0.40003161 217.806427 -0.42230225 C224.24008462 -0.44804255 230.67358699 -0.45927989 237.1072963 -0.4537798 C240.38772801 -0.45140403 243.667541 -0.45709157 246.94795203 -0.47686052 C303.09663615 -0.7991383 356.59969428 17.63710309 401 52 C401.93972656 52.72574219 402.87945312 53.45148437 403.84765625 54.19921875 C438.83675387 82.07713011 466.24061649 119.07506412 482 161 C482.30244629 161.80163574 482.60489258 162.60327148 482.91650391 163.42919922 C490.07996664 182.78009989 495.14762368 203.42300035 497 224 C497.08467529 224.93875977 497.16935059 225.87751953 497.2565918 226.84472656 C501.36642871 275.57825939 492.26447446 324.82122328 469 368 C468.65356445 368.65274902 468.30712891 369.30549805 467.95019531 369.97802734 C458.42245616 387.85234493 446.759566 403.72891834 433.09765625 418.6796875 C431.28292559 420.6870432 429.54608313 422.73567609 427.8125 424.8125 C400.67709622 455.73568326 361.72164282 477.4680107 323 490 C322.27312988 490.23847656 321.54625977 490.47695313 320.79736328 490.72265625 C309.07979927 494.52617807 297.15141783 497.01145422 285 499 C283.54417716 499.25619692 283.54417716 499.25619692 282.05894375 499.51756954 C276.92344597 500.24072374 271.78051673 500.13446455 266.60426331 500.12025452 C264.89656769 500.12153854 264.89656769 500.12153854 263.15437317 500.12284851 C259.33149648 500.12450234 255.5086637 500.11898222 251.68579102 500.11352539 C248.90151665 500.11266251 246.1172431 500.11330819 243.33296871 500.11389065 C236.63111105 500.11442169 229.92926682 500.10981037 223.22741261 500.10338932 C215.47318098 500.09618273 207.71895739 500.09539421 199.96472168 500.09460449 C179.49731233 500.08935647 159.02990596 500.07539533 138.5625 500.0625 C92.836875 500.041875 47.11125 500.02125 0 500 C0 335 0 170 0 0 Z " fill="#010101" transform="translate(0,0)"/>
<path d="M0 0 C0.76054687 0.29003906 1.52109375 0.58007812 2.3046875 0.87890625 C20.13678982 8.252388 32.46656511 20.53826668 40.7109375 37.88671875 C47.18596951 53.52490212 46.94568536 71.2624091 41 87 C33.16231503 105.55922402 19.89821499 117.60515518 1.578125 125.5546875 C-13.36160718 131.58929547 -31.72434843 130.70669166 -46.453125 124.55859375 C-66.03746525 115.423474 -77.71777289 100.92400683 -85.09765625 81.04296875 C-90.30974453 63.70974494 -87.03383363 45.53557115 -78.69140625 29.8125 C-68.39021339 12.68349571 -52.88726046 2.40537229 -33.75390625 -2.5859375 C-22.76388209 -4.2383383 -10.38515221 -4.10125503 0 0 Z " fill="#FDFDFD" transform="translate(183,144)"/>
<path d="M0 0 C0.76054687 0.29003906 1.52109375 0.58007812 2.3046875 0.87890625 C20.13678982 8.252388 32.46656511 20.53826668 40.7109375 37.88671875 C47.18596951 53.52490212 46.94568536 71.2624091 41 87 C33.16231503 105.55922402 19.89821499 117.60515518 1.578125 125.5546875 C-13.36160718 131.58929547 -31.72434843 130.70669166 -46.453125 124.55859375 C-64.84248174 115.98087432 -76.56568567 102.59585943 -84 84 C-84.36222656 83.10925781 -84.72445312 82.21851563 -85.09765625 81.30078125 C-90.497373 65.30255069 -87.15560455 47.61780434 -80.25 32.75 C-71.30069176 15.88313334 -56.82846381 4.40210432 -38.69140625 -1.2734375 C-26.51842385 -4.55961272 -11.79544385 -4.65820071 0 0 Z " fill="#FDFDFD" transform="translate(339,144)"/>
</svg>
